<?xml version="1.0" encoding="UTF-8"?>
<!-- Generator: Adobe Illustrator 18.0.0, SVG Export Plug-In . SVG Version: 6.00 Build 0)  -->
<!DOCTYPE svg PUBLIC "-//W3C//DTD SVG 1.1//EN" "http://www.w3.org/Graphics/SVG/1.1/DTD/svg11.dtd">
<svg version="1.1" id="Layer_1" xmlns="http://www.w3.org/2000/svg" xmlns:xlink="http://www.w3.org/1999/xlink" x="0px" y="0px" width="28px" height="26px" viewBox="0 0 28 26" style="enable-background:new 0 0 28 26;" xml:space="preserve">
<style type="text/css">
	.st0{fill:#595A5C;}
	.st1{fill:none;}
</style>
<path class="st0" d="M25.7,16.1H2V2h23.7V16.1z M12.4,18.2c0-0.9,0.7-1.6,1.6-1.6c0.9,0,1.6,0.7,1.6,1.6c0,0.9-0.7,1.6-1.6,1.6  C13.1,19.8,12.4,19.1,12.4,18.2 M25.8,0h-24C0.8,0,0,0.8,0,1.8v16.8c0,1,0.8,1.8,1.8,1.8H11c0,0,0.4,3.7-2.8,3.7V26H11h5.6h2.8v-1.8  c-3.3,0-2.8-3.7-2.8-3.7h9.2c1,0,1.8-0.8,1.8-1.8V1.8C27.7,0.8,26.8,0,25.8,0"/>
<rect class="st1" width="27.7" height="26"/>
</svg>